<svg width="351" height="417" viewBox="0 0 351 417" fill="none" xmlns="http://www.w3.org/2000/svg">
<g filter="url(#filter0_d_1_4)">
<path d="M252.071 21.383L267.033 10.4684C300.074 -13.6337 346.5 9.96572 346.5 50.863V390.156C346.5 410.673 318.128 416.029 310.649 396.924C305.82 384.59 289.999 381.135 280.469 390.334L271.414 399.074C257.756 412.257 235.112 407.569 227.811 390.046L214.364 357.774C211.833 351.7 207.737 346.406 202.493 342.431C182.737 327.459 154.048 335.866 145.18 359.013C138.509 376.425 120.006 386.456 101.817 382.352L75.5764 376.432C60.3997 373.008 47.6816 362.714 41.1701 348.584L9.22372 279.26C4.23892 268.443 3.27916 256.202 6.51723 244.741L27.7626 169.539C31.1334 157.607 38.8172 147.353 49.3225 140.768L109.665 102.942C122.956 94.6097 140.46 98.3165 149.232 111.321C161.433 129.406 188.46 128.125 198.896 108.968L237.629 37.86C241.166 31.3675 246.098 25.7401 252.071 21.383Z" fill="#739AFF" fill-opacity="0.42" shape-rendering="crispEdges"/>
</g>
<defs>
<filter id="filter0_d_1_4" x="0.633892" y="0.773621" width="349.866" height="415.968" filterUnits="userSpaceOnUse" color-interpolation-filters="sRGB">
<feFlood flood-opacity="0" result="BackgroundImageFix"/>
<feColorMatrix in="SourceAlpha" type="matrix" values="0 0 0 0 0 0 0 0 0 0 0 0 0 0 0 0 0 0 127 0" result="hardAlpha"/>
<feOffset dy="4"/>
<feGaussianBlur stdDeviation="2"/>
<feComposite in2="hardAlpha" operator="out"/>
<feColorMatrix type="matrix" values="0 0 0 0 0 0 0 0 0 0 0 0 0 0 0 0 0 0 0.25 0"/>
<feBlend mode="normal" in2="BackgroundImageFix" result="effect1_dropShadow_1_4"/>
<feBlend mode="normal" in="SourceGraphic" in2="effect1_dropShadow_1_4" result="shape"/>
</filter>
</defs>
</svg>
